<svg width="40" height="40" viewBox="0 0 40 40" fill="none" xmlns="http://www.w3.org/2000/svg">
<g clip-path="url(#clip0_4_146)">
<path d="M19.75 9.6328C19.8281 9.67187 19.8906 9.76562 19.9844 9.76562C20.0703 9.76562 20.2031 9.73437 20.2109 9.64843C20.2266 9.53905 20.0625 9.46874 19.9609 9.42187C19.8281 9.36718 19.6562 9.34374 19.5312 9.41405C19.5 9.42968 19.4687 9.46874 19.4844 9.49999C19.5078 9.60155 19.6641 9.58593 19.75 9.6328ZM18.0391 9.76562C18.1328 9.76562 18.1953 9.67187 18.2734 9.6328C18.3594 9.58593 18.5156 9.60155 18.5469 9.5078C18.5625 9.47655 18.5312 9.43749 18.5 9.42187C18.375 9.35155 18.2031 9.37499 18.0703 9.42968C17.9687 9.47655 17.8047 9.54687 17.8203 9.65624C17.8281 9.73437 17.9609 9.77343 18.0391 9.76562ZM35.3125 31.5469C35.0312 31.2344 34.8984 30.6406 34.75 30.0078C34.6094 29.375 34.4453 28.6953 33.9297 28.2578C33.8281 28.1719 33.7266 28.0937 33.6172 28.0312C33.5156 27.9687 33.4062 27.9141 33.2969 27.875C34.0156 25.7422 33.7344 23.6172 33.0078 21.6953C32.1172 19.3437 30.5625 17.2891 29.375 15.8828C28.0391 14.2031 26.7422 12.6094 26.7656 10.2578C26.8047 6.67187 27.1641 0.00780457 20.8437 -7.92582e-06C12.8437 -0.0156329 14.8437 8.07812 14.7578 10.5625C14.625 12.3906 14.2578 13.8281 13 15.6172C11.5234 17.375 9.44531 20.2109 8.46094 23.1719C7.99219 24.5703 7.77343 25.9922 7.97656 27.3359C7.46875 27.7891 7.08593 28.4844 6.67968 28.9141C6.35156 29.25 5.875 29.375 5.35156 29.5625C4.82812 29.75 4.25781 30.0312 3.90625 30.6953C3.74219 31 3.6875 31.3281 3.6875 31.6641C3.6875 31.9687 3.73437 32.2812 3.78125 32.5859C3.875 33.2187 3.97656 33.8125 3.84375 34.2109C3.4375 35.3359 3.38281 36.1172 3.67187 36.6875C3.96875 37.2578 4.5625 37.5078 5.24218 37.6484C6.59375 37.9297 8.42968 37.8594 9.875 38.625C11.4219 39.4375 12.9922 39.7266 14.2422 39.4375C15.1484 39.2344 15.8906 38.6875 16.2656 37.8594C17.2422 37.8516 18.3203 37.4375 20.0391 37.3437C21.2031 37.25 22.6641 37.7578 24.3437 37.6641C24.3906 37.8437 24.4531 38.0234 24.5391 38.1875V38.1953C25.1875 39.5 26.3984 40.0937 27.6875 39.9922C28.9844 39.8906 30.3516 39.1328 31.4609 37.8125C32.5234 36.5312 34.2734 36 35.4375 35.2969C36.0156 34.9453 36.4844 34.5078 36.5234 33.8672C36.5547 33.2266 36.1797 32.5156 35.3125 31.5469ZM19.9766 6.8203C20.7422 5.08593 22.6484 5.11718 23.4141 6.78905C23.9219 7.89843 23.6953 9.20312 23.0781 9.9453C22.9531 9.8828 22.6172 9.74218 22.0937 9.56249C22.1797 9.46874 22.3359 9.35155 22.3984 9.20312C22.7734 8.28124 22.3828 7.09374 21.6875 7.0703C21.1172 7.03124 20.6016 7.91405 20.7656 8.86718C20.4453 8.71093 20.0312 8.59374 19.75 8.52343C19.6719 7.98437 19.7266 7.3828 19.9766 6.8203ZM16.7969 5.92187C17.5859 5.92187 18.4219 7.03124 18.2891 8.53905C18.0156 8.61718 17.7344 8.73437 17.4922 8.89843C17.5859 8.20312 17.2344 7.32812 16.7422 7.36718C16.0859 7.42187 15.9766 9.02343 16.6016 9.56249C16.6797 9.62499 16.75 9.54687 16.1406 9.99218C14.9219 8.85155 15.3203 5.92187 16.7969 5.92187ZM15.7344 10.6641C16.2187 10.3047 16.7969 9.8828 16.8359 9.84374C17.2031 9.49999 17.8906 8.73437 19.0156 8.73437C19.5703 8.73437 20.2344 8.91405 21.0391 9.42968C21.5312 9.74999 21.9219 9.77343 22.8047 10.1562C23.4609 10.4297 23.875 10.9141 23.625 11.5781C23.4219 12.1328 22.7656 12.7031 21.8516 12.9922C20.9844 13.2734 20.3047 14.2422 18.8672 14.1562C18.5625 14.1406 18.3203 14.0781 18.1172 13.9922C17.4922 13.7187 17.1641 13.1797 16.5547 12.8203C15.8828 12.4453 15.5234 12.0078 15.4062 11.625C15.2969 11.2422 15.4062 10.9219 15.7344 10.6641ZM15.9922 36.7578C15.7812 39.5 12.5625 39.4453 10.1094 38.1641C7.77343 36.9297 4.75 37.6562 4.13281 36.4531C3.94531 36.0859 3.94531 35.4609 4.33594 34.3906V34.375C4.52344 33.7812 4.38281 33.125 4.28906 32.5078C4.19531 31.8984 4.14844 31.3359 4.35937 30.9453C4.63281 30.4219 5.02343 30.2344 5.51562 30.0625C6.32031 29.7734 6.4375 29.7969 7.04687 29.2891C7.47656 28.8437 7.78906 28.2812 8.16406 27.8828C8.5625 27.4531 8.94531 27.25 9.54687 27.3437C10.1797 27.4375 10.7266 27.875 11.2578 28.5937L12.7891 31.375C13.5312 32.9297 16.1562 35.1562 15.9922 36.7578ZM15.8828 34.7344C15.5625 34.2187 15.1328 33.6719 14.7578 33.2031C15.3125 33.2031 15.8672 33.0312 16.0625 32.5078C16.2422 32.0234 16.0625 31.3437 15.4844 30.5625C14.4297 29.1406 12.4922 28.0234 12.4922 28.0234C11.4375 27.3672 10.8437 26.5625 10.5703 25.6875C10.2969 24.8125 10.3359 23.8672 10.5469 22.9375C10.9531 21.1484 12 19.4062 12.6719 18.3125C12.8516 18.1797 12.7344 18.5625 11.9922 19.9375C11.3281 21.1953 10.0859 24.1016 11.7891 26.375C11.8359 24.7578 12.2187 23.1094 12.8672 21.5703C13.8047 19.4297 15.7812 15.7187 15.9375 12.7656C16.0234 12.8281 16.2969 13.0156 16.4219 13.0859C16.7812 13.2969 17.0547 13.6094 17.4062 13.8906C18.375 14.6719 19.6328 14.6094 20.7187 13.9844C21.2031 13.7109 21.5937 13.3984 21.9609 13.2812C22.7344 13.0391 23.3516 12.6094 23.7031 12.1094C24.3047 14.4844 25.7109 17.9141 26.6094 19.5859C27.0859 20.4766 28.0391 22.3594 28.4531 24.6328C28.7109 24.625 29 24.6641 29.3047 24.7422C30.3828 21.9531 28.3906 18.9453 27.4844 18.1094C27.1172 17.75 27.1016 17.5937 27.2812 17.6016C28.2656 18.4766 29.5625 20.2344 30.0312 22.2109C30.25 23.1172 30.2891 24.0625 30.0625 25C31.3437 25.5312 32.8672 26.3984 32.4609 27.7187C32.2891 27.7109 32.2109 27.7187 32.1328 27.7187C32.3828 26.9297 31.8281 26.3437 30.3516 25.6797C28.8203 25.0078 27.5391 25.0078 27.3594 26.6562C26.4141 26.9844 25.9297 27.8047 25.6875 28.7891C25.4687 29.6641 25.4062 30.7187 25.3437 31.9062C25.3047 32.5078 25.0625 33.3125 24.8125 34.1719C22.3047 35.9609 18.8203 36.7422 15.8828 34.7344ZM35.9922 33.8359C35.9219 35.1484 32.7734 35.3906 31.0547 37.4687C30.0234 38.6953 28.7578 39.375 27.6484 39.4609C26.5391 39.5469 25.5781 39.0859 25.0156 37.9531C24.6484 37.0859 24.8281 36.1484 25.1016 35.1172C25.3906 34.0078 25.8203 32.8672 25.875 31.9453C25.9375 30.7578 26.0078 29.7187 26.2031 28.9219C26.4062 28.1172 26.7187 27.5781 27.2734 27.2734C27.2969 27.2578 27.3281 27.25 27.3516 27.2344C27.4141 28.2656 27.9219 29.3125 28.8203 29.5391C29.8047 29.7969 31.2187 28.9531 31.8203 28.2656C32.5234 28.2422 33.0469 28.1953 33.5859 28.6641C34.3594 29.3281 34.1406 31.0312 34.9219 31.9141C35.75 32.8203 36.0156 33.4375 35.9922 33.8359ZM16.0391 11.6172C16.1953 11.7656 16.4062 11.9687 16.6641 12.1719C17.1797 12.5781 17.8984 13 18.7969 13C19.7031 13 20.5547 12.5391 21.2812 12.1562C21.6641 11.9531 22.1328 11.6094 22.4375 11.3437C22.7422 11.0781 22.8984 10.8516 22.6797 10.8281C22.4609 10.8047 22.4766 11.0312 22.2109 11.2266C21.8672 11.4766 21.4531 11.8047 21.125 11.9922C20.5469 12.3203 19.6016 12.7891 18.7891 12.7891C17.9766 12.7891 17.3281 12.4141 16.8437 12.0312C16.6016 11.8359 16.3984 11.6406 16.2422 11.4922C16.125 11.3828 16.0937 11.1328 15.9062 11.1094C15.7969 11.1016 15.7656 11.3984 16.0391 11.6172Z" fill="#736E67"/>
</g>
<defs>
<clipPath id="clip0_4_146">
<rect width="40" height="40" fill="white"/>
</clipPath>
</defs>
</svg>
