<svg width="40" height="40" viewBox="0 0 40 40" fill="none" xmlns="http://www.w3.org/2000/svg">
<path d="M2.5 7.5C2.5 6.11719 3.61719 5 5 5H35C36.3828 5 37.5 6.11719 37.5 7.5C37.5 8.88281 36.3828 10 35 10H5C3.61719 10 2.5 8.88281 2.5 7.5ZM2.5 20C2.5 18.6172 3.61719 17.5 5 17.5H35C36.3828 17.5 37.5 18.6172 37.5 20C37.5 21.3828 36.3828 22.5 35 22.5H5C3.61719 22.5 2.5 21.3828 2.5 20ZM37.5 32.5C37.5 33.8828 36.3828 35 35 35H5C3.61719 35 2.5 33.8828 2.5 32.5C2.5 31.1172 3.61719 30 5 30H35C36.3828 30 37.5 31.1172 37.5 32.5Z" fill="#33312E"/>
</svg>
