<svg width="40" height="40" viewBox="0 0 40 40" fill="none" xmlns="http://www.w3.org/2000/svg">
<path d="M6.3525 6.99124C5.6475 7.69624 5.82375 8.50749 7.0575 10.34C7.6925 11.2912 8.4325 12.7725 8.715 13.6187C8.9975 14.5 9.56125 15.6987 9.94875 16.2975C10.6538 17.285 10.6538 17.4962 10.195 19.2937C9.9125 20.4212 9.8075 21.8325 9.94875 22.7137C10.16 24.195 11.3588 26.345 12.0988 26.5912C12.7338 26.8025 13.65 25.675 13.685 24.6525C13.685 23.7712 13.72 23.7362 14.1075 24.37C14.7775 25.4625 16.8925 27.7887 17.0688 27.6125C17.1388 27.5425 16.6813 26.625 16.0113 25.6037C15.3763 24.5462 14.6363 23.1712 14.355 22.5362C13.9675 21.4787 13.8263 21.4087 13.3675 21.9012C13.085 22.1837 12.7325 22.9937 12.6275 23.7337C12.345 25.4262 11.7113 25.6375 11.2175 24.1925C10.7238 22.7475 10.7238 20.2787 11.2175 18.5875C11.57 17.4237 11.535 17.1075 10.935 16.225C10.5475 15.6962 9.9475 14.4275 9.63 13.405C9.3125 12.4175 8.5725 10.9375 7.97375 10.1612C6.59875 8.22249 6.59875 7.51749 8.04375 7.79874C8.6425 7.90499 9.56 8.32749 10.1238 8.71499C10.6525 9.10249 11.5688 9.41999 12.1325 9.41999C13.825 9.41999 16.7863 11.0775 18.9363 13.2275C20.5938 14.8837 21.4388 16.2237 23.2375 19.855C25.3525 24.155 25.5287 24.4025 26.8337 24.825C28.385 25.3537 31.6275 27.3275 31.6275 27.7512C31.6275 27.8925 30.8163 28.1037 29.83 28.1737C27.1863 28.4562 26.9388 28.9487 28.6663 30.5C29.4775 31.205 30.9938 32.2975 32.0863 32.8975L34.06 34.025L33.1438 32.8612C32.615 32.2262 31.5225 31.24 30.6763 30.7112C29.83 30.1825 29.16 29.6187 29.16 29.4775C29.16 29.3362 29.7588 29.09 30.5 28.9837C32.4738 28.6312 33.0375 28.455 33.0375 28.1025C33.0375 27.5737 29.4775 24.895 27.785 24.1537C26.34 23.4837 26.1638 23.2012 24.295 19.36C22.6375 15.835 21.9688 14.8475 19.8538 12.7325C17.14 10.0187 15.2713 8.85499 12.8738 8.50249C12.0625 8.36124 10.935 7.93874 10.4413 7.58624C9.2775 6.70499 6.91625 6.38749 6.35125 6.98749L6.3525 6.99124Z" fill="#736E67"/>
</svg>
