<svg width="40" height="40" viewBox="0 0 40 40" fill="none" xmlns="http://www.w3.org/2000/svg">
<g clip-path="url(#clip0_4_143)">
<path d="M20 10.5313C30.7125 10.5313 38.95 15.0438 38.95 20C38.95 24.9563 30.7062 29.4688 20 29.4688C9.2875 29.4688 1.05 24.9563 1.05 20C1.05 15.0438 9.29375 10.5313 20 10.5313ZM20 9.48126C8.95625 9.48126 0 14.1875 0 20C0 25.8125 8.95625 30.5188 20 30.5188C31.0438 30.5188 40 25.8125 40 20C40 14.1875 31.0438 9.48126 20 9.48126ZM13.6375 19.1563C13.1438 21.6875 11.4 21.425 9.25625 21.425L10.1125 17.0125C12.4875 17.0125 14.1 16.7563 13.6375 19.1563ZM6.0875 25.8938H8.38125L8.925 23.0938C11.4937 23.0938 13.0875 23.2813 14.5625 21.9C16.1938 20.4 16.6187 17.7313 15.4563 16.3938C14.85 15.6938 13.875 15.35 12.55 15.35H8.13125L6.0875 25.8938ZM17.6938 12.5438H19.975L19.4312 15.3438C21.4 15.3438 23.225 15.2 24.1063 16.0125C25.0312 16.8625 24.5875 17.95 23.5875 23.0813H21.275C22.2375 18.1188 22.4188 17.7063 22.0688 17.3313C21.7313 16.9688 20.9625 17.0438 19.1063 17.0438L17.9312 23.0813H15.65L17.6938 12.5438ZM31.5625 19.1563C31.0625 21.725 29.2687 21.425 27.1812 21.425L28.0375 17.0125C30.425 17.0125 32.025 16.7563 31.5625 19.1563ZM24.0125 25.8938H26.3125L26.8563 23.0938C29.5563 23.0938 31.05 23.25 32.4938 21.9C34.125 20.4 34.55 17.7313 33.3875 16.3938C32.7812 15.6938 31.8063 15.35 30.4813 15.35H26.0625L24.0125 25.8938Z" fill="#736E67"/>
</g>
<defs>
<clipPath id="clip0_4_143">
<rect width="40" height="40" fill="white"/>
</clipPath>
</defs>
</svg>
